<svg preserveAspectRatio="none" width="100%" height="100%" overflow="visible" style="display: block;" viewBox="0 0 18 17.9996" fill="none" xmlns="http://www.w3.org/2000/svg">
<path id="Icon / Isotype" d="M8.99995 0C4.02952 0 0 4.02941 0 8.99984C0 13.9705 4.02952 17.9996 8.99995 17.9996C13.9709 17.9996 18 13.9705 18 8.99984C18 4.02973 13.9709 0.000429882 8.99984 0.000429882L8.99995 0ZM13.1273 12.9804C12.9661 13.2447 12.62 13.3286 12.3556 13.1663C10.2425 11.8756 7.5824 11.5832 4.44962 12.299C4.14774 12.3678 3.84682 12.1786 3.77804 11.8766C3.70893 11.5746 3.89733 11.2737 4.19997 11.2049C7.62829 10.4217 10.569 10.7589 12.9413 12.2087C13.2057 12.371 13.2895 12.716 13.1273 12.9804ZM14.2288 10.5298C14.0257 10.8599 13.5937 10.9642 13.2638 10.7611C10.8446 9.27411 7.15693 8.84347 4.29551 9.71205C3.92441 9.82414 3.53247 9.615 3.41984 9.24455C3.30807 8.87345 3.51731 8.48226 3.88776 8.36941C7.15628 7.37767 11.2197 7.85807 13.9978 9.56524C14.3277 9.76836 14.432 10.2003 14.2288 10.5298ZM14.3234 7.97801C11.4228 6.25514 6.63709 6.09672 3.86767 6.93726C3.42295 7.07213 2.95266 6.82108 2.81789 6.37636C2.68312 5.93143 2.93396 5.46146 3.379 5.32626C6.5581 4.36117 11.843 4.54764 15.1825 6.53016C15.5834 6.76756 15.7145 7.28417 15.477 7.68364C15.2406 8.08365 14.7226 8.21552 14.3238 7.97801H14.3234Z" fill="var(--fill-0, white)"/>
</svg>
