<svg preserveAspectRatio="none" width="100%" height="100%" overflow="visible" style="display: block;" viewBox="0 0 24 24" fill="none" xmlns="http://www.w3.org/2000/svg">
<g id="Group 1">
<circle id="Ellipse 1" cx="12" cy="12" r="11" stroke="var(--stroke-0, white)" stroke-width="2"/>
<path id="Union" d="M12.0002 5C12.5524 5.00012 13.0002 5.39182 13.0002 5.875V11H18.1213C18.6046 11 18.9963 11.4477 18.9963 12C18.9963 12.5523 18.6046 13 18.1213 13H13.0002V18.125C13.0002 18.6082 12.5524 18.9999 12.0002 19C11.448 19 11.0002 18.6082 11.0002 18.125V13H5.87134C5.38809 13 4.99634 12.5523 4.99634 12C4.99634 11.4477 5.38809 11 5.87134 11H11.0002V5.875C11.0002 5.39175 11.448 5 12.0002 5Z" fill="var(--fill-0, white)"/>
</g>
</svg>
